<svg width="249" height="97" viewBox="0 0 249 97" fill="none" xmlns="http://www.w3.org/2000/svg">
<path fill-rule="evenodd" clip-rule="evenodd" d="M67.982 13.9352C64.2601 7.45026 54.2443 0.00332149 41.2453 0.00332149C14.3142 0.00332149 0 23.2092 0 48.3101C0 73.4109 14.3142 96.6168 41.2453 96.6168C54.2443 96.6168 64.2925 89.1699 67.982 82.6849V94.7542H92.1208V0H67.982V13.9321V13.9352ZM46.7973 77.1037H45.3203C33.2508 77.1037 24.1356 65.7729 24.1356 48.119C24.1356 30.4651 33.2185 19.5197 45.3203 19.5197H46.7973C57.9338 19.5197 67.982 30.6595 67.982 48.3134C67.982 65.9672 57.9662 77.1037 46.7973 77.1037ZM207.64 77.1033H206.163C192.426 77.1033 186.456 64.1043 186.456 48.313C186.456 32.5217 192.393 19.5193 206.163 19.5193H207.64C217.689 19.5193 223.05 25.2981 224.559 34.3809H248.695C246.835 11.175 231.041 0.00292969 206.905 0.00292969C182.77 0.00292969 162.32 18.5864 162.32 48.3097C162.32 78.0329 181.837 96.6164 206.905 96.6164C231.974 96.6164 246.835 85.4767 248.695 62.2384H224.559C223.082 71.3212 217.689 77.1 207.64 77.1V77.1033ZM102.648 47.3506C102.648 18.719 120.785 0.935547 149.961 0.935547V0.938868H158.337V23.1827H149.993C134.202 23.1827 126.787 30.6296 126.787 46.4209V94.7278H102.648V47.3506Z" fill="white"/>
</svg>
